<svg width="24" height="24" viewBox="0 0 24 24" fill="none" xmlns="http://www.w3.org/2000/svg">
    <path d="M10.0178 18C9.9164 18.6667 10.2002 20 12.1465 20C12.8561 20 14.2145 19.6 13.9712 18" stroke="black" stroke-width="1.5" stroke-linecap="round" stroke-linejoin="round"/>
    <path d="M6.5426 15H17.352C18.202 15 18.6644 14.0067 18.1172 13.3563L16.1236 10.9864C15.972 10.8061 15.8889 10.5782 15.8889 10.3426V8.05902C15.8889 7.32397 15.8332 6.56502 15.457 5.93356C14.305 4 12 4 12 4C10.3604 4 9.27841 4.76929 8.59723 5.62677C7.96675 6.42043 7.83333 7.47185 7.83333 8.48545V10.3646C7.83333 10.5867 7.75939 10.8025 7.62317 10.978L5.75276 13.3867C5.24261 14.0437 5.71082 15 6.5426 15Z" stroke="black" stroke-width="1.5" stroke-linecap="round" stroke-linejoin="round"/>
</svg>
