<svg width="24" height="24" viewBox="0 0 24 24" fill="none" xmlns="http://www.w3.org/2000/svg">
    <circle cx="7" cy="17" r="3" stroke="black" stroke-width="1.5"/>
    <path d="M5.98216 14.1642L20.0178 8.0405" stroke="black" stroke-width="1.5" stroke-linecap="round" stroke-linejoin="round"/>
    <circle cx="7" cy="7" r="3" stroke="black" stroke-width="1.5"/>
    <path d="M6.26308 9.11211C5.87518 8.96681 5.44295 9.16348 5.29765 9.55138C5.15236 9.93927 5.34903 10.3715 5.73692 10.5168L6.26308 9.11211ZM19.6789 16.6778C20.0533 16.8551 20.5005 16.6954 20.6778 16.3211C20.8551 15.9467 20.6954 15.4995 20.3211 15.3222L19.6789 16.6778ZM10.2369 12.2023L10.9393 12.4654L11.4654 11.0607L10.7631 10.7977L10.2369 12.2023ZM15.5711 13.0722C15.1967 12.8949 14.7495 13.0546 14.5722 13.4289C14.3949 13.8033 14.5546 14.2505 14.9289 14.4278L15.5711 13.0722ZM5.73692 10.5168L10.2369 12.2023L10.7631 10.7977L6.26308 9.11211L5.73692 10.5168ZM14.9289 14.4278L19.6789 16.6778L20.3211 15.3222L15.5711 13.0722L14.9289 14.4278Z" fill="black"/>
</svg>
