<svg width="24" height="24" viewBox="0 0 24 24" fill="none" xmlns="http://www.w3.org/2000/svg">
    <path d="M12.5 17.6693V5.11342C12.5 4.682 11.9903 4.45309 11.6678 4.73972L8.28416 7.74741C8.10111 7.91012 7.86471 8 7.6198 8H6C5.44772 8 5 8.44772 5 9V14C5 14.5523 5.44772 15 6 15H8.54623C8.83459 15 9.10892 15.1245 9.29881 15.3415L11.6237 17.9985C11.9277 18.346 12.5 18.131 12.5 17.6693Z" stroke="black" stroke-width="1.5" stroke-linejoin="round"/>
    <path d="M15.5 9.5C16 10.1667 16.7 11.9 15.5 13.5" stroke="black" stroke-width="1.5" stroke-linecap="round" stroke-linejoin="round"/>
    <path d="M17.5 7.5C18.8333 8.83333 20.7 12.3 17.5 15.5" stroke="black" stroke-width="1.5" stroke-linecap="round" stroke-linejoin="round"/>
</svg>
